<svg width="99" height="49" viewBox="0 0 99 49" fill="none" xmlns="http://www.w3.org/2000/svg">
<g clip-path="url(#clip0_2729_20401)">
<path fill-rule="evenodd" clip-rule="evenodd" d="M80.2073 21.0972C80.5815 21.7429 80.7039 22.4774 80.7443 23.3032L80.7975 24.4039V32.1007L80.8517 33.2025C80.9603 35.002 82.2874 36.3325 84.1007 36.4457L85.1968 36.5V24.4039L85.2511 23.3032C85.2961 22.4867 85.4174 21.7382 85.7974 21.088C86.1846 20.421 86.7404 19.8677 87.4091 19.4835C88.0778 19.0993 88.8358 18.8978 89.607 18.8992C90.3782 18.9006 91.1355 19.1049 91.8028 19.4915C92.47 19.8781 93.0239 20.4335 93.4086 21.1018C93.7829 21.7475 93.8995 22.4959 93.9446 23.3032L93.9988 24.4005V32.1007L94.0531 33.2025C94.1663 35.0112 95.483 36.3418 97.3021 36.4457L98.3981 36.5V23.3032C98.3981 20.9697 97.4714 18.7317 95.8216 17.0813C94.1719 15.4309 91.9342 14.5032 89.6007 14.5023C88.3517 14.501 87.1168 14.7662 85.9786 15.2803C84.8403 15.7944 83.8248 16.5454 83 17.4833C82.1748 16.5458 81.1593 15.7949 80.0211 15.2807C78.8829 14.7665 77.6482 14.5007 76.3993 14.5012C74.5721 14.5012 72.8766 15.0555 71.4722 16.013C70.6152 15.0567 68.6979 14.5012 67.5972 14.5012V36.5L68.6979 36.4457C70.539 36.3244 71.8695 35.0297 71.9411 33.2025L72 32.1007V24.4039L72.0543 23.3032C72.1005 22.4728 72.216 21.7429 72.5913 21.0926C72.9789 20.4261 73.5345 19.8728 74.2027 19.4882C74.8709 19.1035 75.6283 18.9009 76.3993 18.9005C77.1709 18.9006 77.9289 19.1037 78.5973 19.4893C79.2656 19.8748 79.8209 20.4294 80.2073 21.0972ZM4.89931 36.4469L6 36.5H22.4988L22.4446 35.4028C22.2956 33.5941 21.0147 32.2728 19.2002 32.155L18.0995 32.1007H8.20139L21.3982 18.8993L21.3439 17.8032C21.2584 15.9761 19.9232 14.6559 18.0995 14.5554L16.9988 14.5058L0.5 14.5012L0.554284 15.6019C0.698656 17.3932 1.998 18.7422 3.79746 18.8462L4.89931 18.9005H14.7975L1.60069 32.1018L1.65498 33.2025C1.76354 35.0159 3.07213 36.3291 4.89931 36.4457V36.4469ZM63.2788 17.7212C64.3004 18.7426 65.1107 19.9552 65.6636 21.2898C66.2165 22.6244 66.5011 24.0548 66.5011 25.4994C66.5011 26.944 66.2165 28.3744 65.6636 29.709C65.1107 31.0436 64.3004 32.2562 63.2788 33.2776C61.2148 35.3399 58.4165 36.4983 55.4988 36.4983C52.5812 36.4983 49.7829 35.3399 47.7189 33.2776C43.4236 28.9823 43.4236 22.0166 47.7189 17.7212C48.7396 16.7002 49.9513 15.8902 51.285 15.3375C52.6187 14.7848 54.0482 14.5002 55.4919 14.5C56.9379 14.499 58.37 14.7831 59.7061 15.336C61.0423 15.8889 62.2563 16.6999 63.2788 17.7224V17.7212ZM60.1661 20.8362C61.4033 22.0744 62.0983 23.7531 62.0983 25.5035C62.0983 27.2538 61.4033 28.9326 60.1661 30.1707C58.9279 31.408 57.2492 32.1029 55.4988 32.1029C53.7485 32.1029 52.0697 31.408 50.8316 30.1707C49.5944 28.9326 48.8994 27.2538 48.8994 25.5035C48.8994 23.7531 49.5944 22.0744 50.8316 20.8362C52.0697 19.599 53.7485 18.904 55.4988 18.904C57.2492 18.904 58.9279 19.599 60.1661 20.8362ZM32.4062 14.5C33.85 14.5004 35.2795 14.7851 36.6133 15.3381C37.9469 15.891 39.1587 16.7012 40.1792 17.7224C44.4757 22.0166 44.4757 28.9834 40.1792 33.2776C38.1153 35.3399 35.317 36.4983 32.3993 36.4983C29.4816 36.4983 26.6833 35.3399 24.6194 33.2776C20.324 28.9823 20.324 22.0166 24.6194 17.7212C25.64 16.7002 26.8518 15.8902 28.1855 15.3375C29.5192 14.7848 30.9487 14.5002 32.3924 14.5H32.4062ZM37.0666 20.8339C38.3041 22.0721 38.9994 23.7511 38.9994 25.5017C38.9994 27.2524 38.3041 28.9314 37.0666 30.1696C35.8284 31.4068 34.1497 32.1018 32.3993 32.1018C30.6489 32.1018 28.9702 31.4068 27.732 30.1696C26.4948 28.9314 25.7998 27.2527 25.7998 25.5023C25.7998 23.752 26.4948 22.0732 27.732 20.835C28.9702 19.5978 30.6489 18.9028 32.3993 18.9028C34.1497 18.9028 35.8284 19.5978 37.0666 20.835V20.8339Z" fill="#1D2939"/>
</g>
<defs>
<clipPath id="clip0_2729_20401">
<rect width="98" height="48" fill="white" transform="translate(0.5 0.5)"/>
</clipPath>
</defs>
</svg>
